<?xml version="1.0" encoding="UTF-8"?>
<svg id="_图层_1" data-name="图层 1" xmlns="http://www.w3.org/2000/svg" viewBox="0 0 106.23 89.59">
  <defs>
    <style>
      .cls-1, .cls-2, .cls-3 {
        stroke: #000;
      }

      .cls-1, .cls-3, .cls-4 {
        fill: none;
        stroke-linecap: round;
        stroke-linejoin: round;
      }

      .cls-2 {
        fill: #ff7f00;
        stroke-miterlimit: 10;
        stroke-width: .5px;
      }

      .cls-3, .cls-4 {
        stroke-width: 6px;
      }

      .cls-4 {
        stroke: #ff1d25;
      }

      .cls-5 {
        fill: #f5f5f5;
      }
    </style>
  </defs>
  <g id="SPLINE">
    <g>
      <path class="cls-5" d="M103.23,7.04c-.19,4.42-.4,8.84-.64,13.23-.11,2.19-.24,4.38-.37,6.56-.14,2.16-.27,4.32-.42,6.45s-.3,4.22-.47,6.27-.34,4.06-.52,5.99-.37,3.8-.57,5.57c-.19,1.76-.39,3.44-.6,5-.21,1.55-.43,3-.64,4.31-.22,1.32-.44,2.5-.66,3.56-.23,1.06-.45,2-.67,2.81s-.44,1.51-.66,2.1-.43,1.09-.65,1.48c-.21.4-.42.71-.63.95-.41.47-.81.63-1.21.57-29.49,20.85-60,19.51-91.53-4.04.39.06.79-.1,1.21-.57.2-.24.41-.55.63-.94.21-.4.43-.9.64-1.49.22-.59.44-1.29.66-2.1s.45-1.75.67-2.81.44-2.25.66-3.56.43-2.76.64-4.31c.21-1.56.41-3.24.6-5,.2-1.77.39-3.63.57-5.57.18-1.94.36-3.94.52-5.99.16-2.05.32-4.15.47-6.27s.28-4.28.42-6.45c.13-2.17.26-4.37.37-6.56.23-4.39.44-8.81.63-13.23,31.53,23.54,62.04,24.89,91.54,4.04Z"/>
      <g>
        <path class="cls-1" d="M3.01,67.86c31.53,23.54,62.04,24.89,91.53,4.04"/>
        <path class="cls-1" d="M94.54,71.9c.4.06.8-.1,1.21-.57.21-.24.42-.55.63-.95.22-.39.43-.89.65-1.48s.44-1.29.66-2.1.44-1.75.67-2.81c.22-1.06.44-2.25.66-3.56.21-1.32.43-2.76.64-4.31.21-1.56.41-3.24.6-5,.2-1.77.38-3.63.57-5.57s.36-3.94.52-5.99.32-4.15.47-6.27.28-4.28.42-6.45c.13-2.17.26-4.37.37-6.56.24-4.39.45-8.81.64-13.23"/>
        <path class="cls-1" d="M3.01,67.86c.39.06.79-.1,1.21-.57.2-.24.41-.55.63-.94.21-.4.43-.9.64-1.49.22-.59.44-1.29.66-2.1s.45-1.75.67-2.81.44-2.25.66-3.56.43-2.76.64-4.31c.21-1.56.41-3.24.6-5,.2-1.77.39-3.63.57-5.57.18-1.94.36-3.94.52-5.99.16-2.05.32-4.15.47-6.27s.28-4.28.42-6.45c.13-2.17.26-4.37.37-6.56.23-4.39.44-8.81.63-13.23"/>
        <path class="cls-1" d="M11.69,3c31.53,23.54,62.04,24.89,91.54,4.04"/>
      </g>
    </g>
  </g>
  <g id="SPLINE-2" data-name="SPLINE">
    <path class="cls-1" d="M88.76,75.94c.17-.1.34-.19.51-.29.46-.27.9-.56,1.34-.84"/>
  </g>
  <g id="SPLINE-3" data-name="SPLINE">
    <path class="cls-1" d="M43.06,85.91c.21.03.42.06.69.1.06,0,.13.02.19.02"/>
  </g>
  <g id="SPLINE-4" data-name="SPLINE">
    <path class="cls-1" d="M57.76,86.35c.2-.01.41-.03.61-.05.76-.06,1.52-.15,2.28-.25.81-.11,1.62-.23,2.43-.36.87-.14,1.72-.31,2.58-.49.92-.19,1.83-.4,2.73-.63.97-.25,1.93-.51,2.87-.8,1.02-.31,2.03-.64,3.02-.98.91-.32,1.82-.66,2.71-1.01.95-.38,1.89-.77,2.81-1.18.99-.44,1.96-.89,2.92-1.36s1.92-.98,2.87-1.48"/>
  </g>
  <g id="SPLINE-5" data-name="SPLINE">
    <path class="cls-1" d="M90.6,74.81c.45-.28.91-.55,1.35-.83,1.23-.78,2.4-1.6,3.57-2.42"/>
  </g>
  <g id="SPLINE-6" data-name="SPLINE">
    <path class="cls-1" d="M85.58,77.77s-.06.03-.08.05c-.07.04-.15.07-.22.11"/>
  </g>
  <line class="cls-4" x1="11.69" y1="3" x2="48.77" y2="59.21"/>
  <line class="cls-4" x1="103.23" y1="7.04" x2="59.14" y2="61.42"/>
  <g id="SPLINE-7" data-name="SPLINE">
    <path class="cls-1" d="M94.54,71.9c-.59.45-1.18.91-1.78,1.35s-1.19.86-1.79,1.27-1.2.8-1.81,1.18-1.2.74-1.82,1.1c-.58.33-1.17.65-1.75.96"/>
  </g>
  <g id="SPLINE-8" data-name="SPLINE">
    <path class="cls-1" d="M94.54,71.9c-.51.45-1.02.89-1.54,1.31s-1.03.79-1.57,1.12c-.27.17-.55.32-.82.47"/>
  </g>
  <line class="cls-4" x1="57.46" y1="67.88" x2="94.32" y2="72.06"/>
  <g id="SPLINE-9" data-name="SPLINE">
    <g>
      <path class="cls-3" d="M3,67.87c31.54,23.54,62.04,24.88,91.54,4.03"/>
      <path class="cls-3" d="M94.54,71.9c.39.06.8-.1,1.21-.57.21-.24.42-.55.63-.94.21-.4.43-.9.65-1.48.22-.59.44-1.3.66-2.11s.44-1.74.66-2.8.44-2.25.66-3.56.43-2.76.64-4.32.41-3.23.61-5c.19-1.77.38-3.63.57-5.57s.36-3.94.51-5.99c.16-2.05.32-4.15.47-6.27.16-2.12.29-4.27.42-6.45.14-2.17.26-4.37.37-6.56.24-4.39.45-8.81.64-13.23"/>
      <path class="cls-3" d="M3,67.87c.39.05.8-.11,1.21-.58.21-.24.42-.55.63-.94.22-.4.43-.9.65-1.48.22-.59.44-1.3.66-2.11s.44-1.74.66-2.8c.23-1.06.45-2.25.66-3.56.22-1.32.44-2.76.65-4.32.2-1.56.41-3.23.6-5,.2-1.77.38-3.63.57-5.57s.36-3.94.52-5.99c.16-2.05.32-4.15.47-6.27.15-2.12.28-4.27.41-6.45.14-2.17.26-4.37.37-6.56.24-4.39.45-8.81.64-13.23"/>
      <path class="cls-3" d="M11.69,3c31.53,23.54,62.04,24.89,91.54,4.04"/>
    </g>
  </g>
  <circle class="cls-2" cx="54.65" cy="57.49" r="14.43"/>
</svg>